<svg width="128" height="128" viewBox="0 0 128 128" fill="none" xmlns="http://www.w3.org/2000/svg">
  <rect width="128" height="128" rx="64" fill="#030303"/>
  <circle cx="64" cy="64" r="44" stroke="white" stroke-width="5"/>
  <path d="M64 79V56" stroke="white" stroke-width="6" stroke-linecap="round"/>
  <path d="M55 66C52.7 63.7 52.7 59.9 55 57.6" stroke="white" stroke-width="5" stroke-linecap="round"/>
  <path d="M73 57.6C75.3 59.9 75.3 63.7 73 66" stroke="white" stroke-width="5" stroke-linecap="round"/>
  <path d="M47.5 74C41.6 68.1 41.6 58.5 47.5 52.6" stroke="white" stroke-width="4.5" stroke-linecap="round"/>
  <path d="M80.5 52.6C86.4 58.5 86.4 68.1 80.5 74" stroke="white" stroke-width="4.5" stroke-linecap="round"/>
  <path d="M38.5 83C27.7 72.2 27.7 54.4 38.5 43.6" stroke="white" stroke-width="4" stroke-linecap="round"/>
  <path d="M89.5 43.6C100.3 54.4 100.3 72.2 89.5 83" stroke="white" stroke-width="4" stroke-linecap="round"/>
  <path d="M55 92H73" stroke="white" stroke-width="5" stroke-linecap="round"/>
  <path d="M58 92L64 79L70 92" stroke="white" stroke-width="5" stroke-linecap="round" stroke-linejoin="round"/>
</svg>
